<svg width="113" height="53" viewBox="0 0 113 53" fill="none" xmlns="http://www.w3.org/2000/svg">
<path d="M15.7793 44.8496C11.4238 44.8496 7.81055 43.668 4.93945 41.3047C2.06836 38.9219 0.554688 35.8555 0.398438 32.1055H7.48828C7.72266 34.0586 8.61133 35.6504 10.1543 36.8809C11.7168 38.1113 13.6113 38.7266 15.8379 38.7266C18.3574 38.7266 20.3984 37.9355 21.9609 36.3535C23.543 34.7715 24.334 32.7305 24.334 30.2305C24.334 27.6914 23.543 25.6211 21.9609 24.0195C20.3984 22.3984 18.377 21.5879 15.8965 21.5879C14.1777 21.5879 12.6055 21.959 11.1797 22.7012C9.77344 23.4434 8.67969 24.4785 7.89844 25.8066H1.04297L3.24023 1.72461H29.1387V7.90625H9.2168L8.13281 20.2695H8.30859C9.1875 18.9023 10.457 17.8281 12.1172 17.0469C13.7773 16.2461 15.6426 15.8457 17.7129 15.8457C21.7559 15.8457 25.0859 17.1836 27.7031 19.8594C30.3203 22.5156 31.6289 25.9043 31.6289 30.0254C31.6289 34.4199 30.1543 37.9941 27.2051 40.748C24.2754 43.4824 20.4668 44.8496 15.7793 44.8496ZM41.6777 52.9355H36.082L38.5137 37.0273H45.6328L41.6777 52.9355ZM68.6016 44.8496C63.7188 44.8496 59.7539 43.707 56.707 41.4219C53.6602 39.1367 52.1367 36.1875 52.1367 32.5742C52.1367 29.8398 53.0156 27.4863 54.7734 25.5137C56.5508 23.5215 58.875 22.252 61.7461 21.7051V21.5586C59.3438 20.9336 57.4199 19.7617 55.9746 18.043C54.5293 16.3047 53.8066 14.293 53.8066 12.0078C53.8066 8.78516 55.1934 6.12891 57.9668 4.03906C60.7598 1.92969 64.3047 0.875 68.6016 0.875C72.918 0.875 76.4531 1.92969 79.207 4.03906C81.9805 6.12891 83.3672 8.79492 83.3672 12.0371C83.3672 14.3027 82.6445 16.2949 81.1992 18.0137C79.7734 19.7324 77.8594 20.9141 75.457 21.5586V21.7051C78.3477 22.2715 80.6719 23.5508 82.4297 25.543C84.207 27.5156 85.0957 29.8594 85.0957 32.5742C85.0957 36.1875 83.5625 39.1367 80.4961 41.4219C77.4297 43.707 73.4648 44.8496 68.6016 44.8496ZM62.3906 37.0859C64.0117 38.4141 66.082 39.0781 68.6016 39.0781C71.1211 39.0781 73.1914 38.4141 74.8125 37.0859C76.4336 35.7578 77.2441 34.0684 77.2441 32.0176C77.2441 29.9473 76.4336 28.248 74.8125 26.9199C73.2109 25.5918 71.1406 24.9277 68.6016 24.9277C66.082 24.9277 64.0117 25.6016 62.3906 26.9492C60.7695 28.2773 59.959 29.9668 59.959 32.0176C59.959 34.0684 60.7695 35.7578 62.3906 37.0859ZM68.6016 19.1562C70.7305 19.1562 72.4785 18.5703 73.8457 17.3984C75.2129 16.207 75.8965 14.7031 75.8965 12.8867C75.8965 11.0508 75.2129 9.54688 73.8457 8.375C72.4785 7.18359 70.7305 6.58789 68.6016 6.58789C66.4531 6.58789 64.6953 7.18359 63.3281 8.375C61.9609 9.54688 61.2773 11.0508 61.2773 12.8867C61.2773 14.7031 61.9609 16.207 63.3281 17.3984C64.6953 18.5703 66.4531 19.1562 68.6016 19.1562ZM96.375 17.6328H90.7793L93.2109 1.72461H100.33L96.375 17.6328ZM108.738 17.6328H103.143L105.75 1.72461H112.898L108.738 17.6328Z" fill="#1D1D1F"/>
</svg>
