<svg width="35" height="35" viewBox="0 0 35 35" fill="none" xmlns="http://www.w3.org/2000/svg">
<g clip-path="url(#clip0_3_8)">
<path d="M24.5 29H10.5C9.30693 28.9987 8.16311 28.5241 7.31948 27.6805C6.47585 26.8369 6.00132 25.6931 6 24.5V10.5C6.00132 9.30693 6.47585 8.16311 7.31948 7.31948C8.16311 6.47585 9.30693 6.00132 10.5 6H24.5C25.6931 6.00132 26.8369 6.47585 27.6805 7.31948C28.5241 8.16311 28.9987 9.30693 29 10.5V24.5C28.9987 25.6931 28.5241 26.8369 27.6805 27.6805C26.8369 28.5241 25.6931 28.9987 24.5 29ZM10.5 7C9.57208 7.00111 8.68249 7.37022 8.02635 8.02635C7.37022 8.68249 7.00111 9.57208 7 10.5V24.5C7.00111 25.4279 7.37022 26.3175 8.02635 26.9736C8.68249 27.6298 9.57208 27.9989 10.5 28H24.5C25.4279 27.9989 26.3175 27.6298 26.9736 26.9736C27.6298 26.3175 27.9989 25.4279 28 24.5V10.5C27.9989 9.57208 27.6298 8.68249 26.9736 8.02635C26.3175 7.37022 25.4279 7.00111 24.5 7H10.5ZM13.0059 15.042H14.2188L15.9346 19.9746H14.8477L14.4824 18.7783H12.7424L12.3772 19.9746H11.293L13.0059 15.042ZM12.9785 18.0059H14.2461L13.6445 16.0259H13.583L12.9785 18.0059ZM17.4316 16.0166H17.3711L16.1602 16.8574V15.9274L17.4355 15.0417H18.4648V19.9743H17.4316V16.0166ZM19.5957 17.5547V17.5479C19.5957 15.8979 20.375 14.916 21.6357 14.916C22.0476 14.8877 22.4563 15.0065 22.7888 15.2513C23.1212 15.4962 23.356 15.8511 23.4512 16.2529L23.457 16.2861H22.4492L22.4355 16.2561C22.3748 16.0965 22.2648 15.9604 22.1216 15.8675C21.9783 15.7747 21.8092 15.7298 21.6387 15.7395C20.9248 15.7395 20.6133 16.4406 20.5762 17.3361C20.573 17.3734 20.5717 17.4109 20.5723 17.4484H20.6406C20.7579 17.2163 20.9411 17.024 21.1674 16.8958C21.3936 16.7676 21.6527 16.7091 21.9121 16.7277C22.1265 16.7188 22.3405 16.7545 22.5403 16.8327C22.7402 16.9109 22.9216 17.0299 23.073 17.182C23.2244 17.3341 23.3426 17.516 23.4199 17.7162C23.4972 17.9164 23.532 18.1305 23.5221 18.3449V18.3508C23.5217 18.5925 23.4714 18.8316 23.3744 19.053C23.2774 19.2744 23.1358 19.4734 22.9584 19.6376C22.7811 19.8019 22.5717 19.9278 22.3435 20.0075C22.1153 20.0871 21.8731 20.1189 21.6321 20.1008C20.4873 20.1006 19.5957 19.291 19.5957 17.5547ZM21.625 19.2842C21.7434 19.2853 21.8607 19.2629 21.9703 19.2182C22.0799 19.1734 22.1795 19.1073 22.2632 19.0236C22.3469 18.94 22.4132 18.8405 22.458 18.731C22.5029 18.6214 22.5254 18.5041 22.5244 18.3857V18.3779C22.5221 18.1424 22.4275 17.9172 22.2609 17.7507C22.0944 17.5842 21.8691 17.4898 21.6336 17.4876C21.3982 17.4854 21.1712 17.5757 21.0016 17.7391C20.832 17.9025 20.7332 18.1259 20.7266 18.3613V18.3643C20.7237 18.4841 20.7449 18.6032 20.7887 18.7147C20.8326 18.8262 20.8983 18.9278 20.982 19.0135C21.0658 19.0992 21.1658 19.1673 21.2762 19.2138C21.3866 19.2603 21.5052 19.2842 21.625 19.2842Z" fill="#333333"/>
</g>
<defs>
<clipPath id="clip0_3_8">
<rect width="35" height="35" fill="white"/>
</clipPath>
</defs>
</svg>
