<svg width="35" height="35" viewBox="0 0 35 35" fill="none" xmlns="http://www.w3.org/2000/svg">
<g clip-path="url(#clip0_3_5)">
<path d="M23.5 16C24.6046 16 25.5 15.1046 25.5 14C25.5 12.8954 24.6046 12 23.5 12C22.3954 12 21.5 12.8954 21.5 14C21.5 15.1046 22.3954 16 23.5 16ZM23.5 13C24.0514 13 24.5 13.4486 24.5 14C24.5 14.5514 24.0514 15 23.5 15C22.9486 15 22.5 14.5514 22.5 14C22.5 13.4486 22.9486 13 23.5 13ZM28.9999 6.0098V7H15.2435C10.7054 7 7 10.6299 7 15.0791V29H6.0131V15.0791C6.0131 10.0781 10.1537 6.0098 15.2436 6.0098H28.9999ZM22.4999 9H14.4999C11.4672 9 8.9999 11.4678 8.9999 14.5V23.5C8.9999 26.5322 11.4672 29 14.4999 29H22.4999C25.5326 29 27.9999 26.5322 27.9999 23.5V14.5C27.9999 11.4678 25.5326 9 22.4999 9ZM26.9999 23.5C26.9999 25.9814 24.9813 28 22.4999 28H14.4999C12.0185 28 9.9999 25.9814 9.9999 23.5V14.5C9.9999 12.0186 12.0185 10 14.4999 10H22.4999C24.9813 10 26.9999 12.0186 26.9999 14.5V23.5ZM14.5 24C14.5 24.5522 14.0523 25 13.5 25C12.9477 25 12.5 24.5522 12.5 24C12.5 23.4478 12.9477 23 13.5 23C14.0523 23 14.5 23.4477 14.5 24ZM18.75 15C18.75 17.071 17.071 18.75 15 18.75C12.929 18.75 11.25 17.071 11.25 15C11.25 12.929 12.929 11.25 15 11.25C17.071 11.25 18.75 12.9289 18.75 15ZM25.75 23C25.75 25.071 24.071 26.75 22 26.75C19.929 26.75 18.25 25.071 18.25 23C18.25 20.929 19.929 19.25 22 19.25C24.071 19.25 25.75 20.9289 25.75 23Z" fill="#333333"/>
</g>
<defs>
<clipPath id="clip0_3_5">
<rect width="35" height="35" fill="white"/>
</clipPath>
</defs>
</svg>
