<svg width="35" height="35" viewBox="0 0 35 35" fill="none" xmlns="http://www.w3.org/2000/svg">
<g clip-path="url(#clip0_3_2)">
<path d="M29 10V29H28V10C28.0043 9.60485 27.9296 9.21281 27.7804 8.8469C27.6311 8.48099 27.4103 8.14857 27.1309 7.86913C26.8514 7.5897 26.519 7.36888 26.1531 7.21964C25.7872 7.07039 25.3952 6.99572 25 7H10C9.60484 6.99572 9.21281 7.07039 8.8469 7.21964C8.48099 7.36888 8.14856 7.5897 7.86913 7.86913C7.5897 8.14857 7.36888 8.48099 7.21963 8.8469C7.07039 9.21281 6.99571 9.60485 7 10V29H6V10C5.99427 9.47312 6.09382 8.9504 6.29281 8.46251C6.4918 7.97462 6.78622 7.53139 7.1588 7.1588C7.53138 6.78622 7.97462 6.4918 8.46251 6.29281C8.9504 6.09382 9.47312 5.99427 10 6H25C25.5269 5.99428 26.0496 6.09384 26.5375 6.29284C27.0254 6.49183 27.4686 6.78626 27.8412 7.15883C28.2137 7.53141 28.5082 7.97465 28.7072 8.46253C28.9062 8.95041 29.0057 9.47313 29 10ZM20.25 8H14.75C14.3865 8.03607 14.0518 8.21353 13.818 8.49413C13.5841 8.77473 13.4699 9.13598 13.5 9.5C13.4699 9.86402 13.5841 10.2253 13.818 10.5059C14.0518 10.7865 14.3865 10.9639 14.75 11H20.25C20.6135 10.9639 20.9482 10.7865 21.182 10.5059C21.4159 10.2253 21.5301 9.86402 21.5 9.5C21.5301 9.13598 21.4159 8.77473 21.182 8.49413C20.9482 8.21353 20.6135 8.03607 20.25 8Z" fill="#333333"/>
</g>
<defs>
<clipPath id="clip0_3_2">
<rect width="35" height="35" fill="white"/>
</clipPath>
</defs>
</svg>
