<svg width="44" height="50" viewBox="0 0 44 50" fill="none" xmlns="http://www.w3.org/2000/svg">
<path fill-rule="evenodd" clip-rule="evenodd" d="M42.4836 12.7093L21.901 0.899986C21.7672 0.82167 21.6147 0.780396 21.4594 0.780396C21.3041 0.780396 21.1517 0.82167 21.0179 0.899986L0.441572 12.7093C0.307463 12.7867 0.196107 12.8977 0.118623 13.0312C0.0411382 13.1647 0.00023935 13.3161 2.94554e-06 13.4703V37.1016C-0.00039847 37.2558 0.0402353 37.4075 0.117783 37.5411C0.195331 37.6747 0.307034 37.7856 0.441572 37.8625L21.0179 49.6781C21.1528 49.7531 21.3048 49.7925 21.4594 49.7925C21.614 49.7925 21.766 49.7531 21.901 49.6781L42.4836 37.8625C42.6163 37.7841 42.7262 37.6728 42.8025 37.5394C42.8789 37.406 42.9189 37.255 42.9189 37.1016V13.4687C42.9193 13.3152 42.8793 13.1642 42.803 13.0307C42.7266 12.8973 42.6165 12.7859 42.4836 12.7078V12.7093ZM8.60043 10.0578L27.412 20.8563L21.461 24.2703L2.65572 13.4734L8.60043 10.0562V10.0578ZM13.7311 7.10783L32.5427 17.9093L29.1877 19.8406L10.3761 9.03902L13.7311 7.10783ZM30.0724 21.364L33.4274 19.4344V25.8938L31.7523 25.8843C31.5009 25.8843 31.2494 25.9937 31.0829 26.1844L30.0724 27.3531V21.364ZM21.4594 2.68126L40.271 13.4703L39.3847 13.9781L34.3137 16.8922L15.5084 6.09064L21.4594 2.67973V2.68126ZM1.771 14.9938L20.5732 25.7953V47.3922L1.771 36.5907V14.9938ZM41.1541 36.5907L22.3426 47.3922V25.7953L28.2999 22.3782V29.7093C28.2992 29.8251 28.3217 29.9398 28.3661 30.0468C28.4105 30.1539 28.4758 30.2511 28.5582 30.3329C28.6407 30.4146 28.7387 30.4791 28.8465 30.5228C28.9543 30.5666 29.0697 30.5885 29.1861 30.5875C29.2113 30.5875 29.2223 30.5578 29.2569 30.55C29.3688 30.547 29.4791 30.522 29.5814 30.4764C29.6836 30.4308 29.7757 30.3656 29.8524 30.2844L32.1514 27.6406L34.3121 27.6485C34.5479 27.6485 34.7726 27.5515 34.9376 27.3859C35.0207 27.3057 35.0864 27.2094 35.1307 27.103C35.175 26.9966 35.197 26.8823 35.1953 26.7672V18.4188L41.1526 14.9938V36.5907H41.1541Z" fill="#333333"/>
</svg>
