<svg width="30" height="30" viewBox="0 0 30 30" fill="none" xmlns="http://www.w3.org/2000/svg">
<path d="M25.625 10H4.375M6.75 26.25H23.25C24.9069 26.25 26.25 24.9069 26.25 23.25V9.25C26.25 7.59315 24.9069 6.25 23.25 6.25H6.75C5.09315 6.25 3.75 7.59315 3.75 9.25V23.25C3.75 24.9069 5.09315 26.25 6.75 26.25Z" stroke="#5E8BCE" stroke-width="1.5" stroke-linecap="round"/>
<path d="M9.375 6.25V3.4375" stroke="#5E8BCE" stroke-width="1.5" stroke-linecap="round" stroke-linejoin="round"/>
<path d="M20.625 6.25V3.4375" stroke="#5E8BCE" stroke-width="1.5" stroke-linecap="round" stroke-linejoin="round"/>
<path d="M10.3125 21.875H8.4375M10.3125 18.125H8.4375M10.3125 14.375H8.4375M15.9375 21.875H14.0625M15.9375 18.125H14.0625M15.9375 14.375H14.0625M21.5625 21.875H19.6875M21.5625 18.125H19.6875M21.5625 14.375H19.6875" stroke="#5E8BCE" stroke-width="1.5" stroke-linecap="round"/>
</svg>
