<svg width="389" height="270" viewBox="0 0 389 270" fill="none" xmlns="http://www.w3.org/2000/svg">
<rect width="389" height="270" fill="#FAFAFA"/>
<g clip-path="url(#clip0)">
<path d="M221.537 194C220.704 194 219.852 193.896 219.009 193.672L142.338 173.14C137.082 171.692 133.948 166.248 135.327 160.992L145.001 124.935C145.358 123.611 146.716 122.843 148.035 123.18C149.359 123.532 150.142 124.895 149.79 126.214L140.122 162.261C139.432 164.889 141.009 167.626 143.642 168.355L220.283 188.878C222.916 189.572 225.633 188.005 226.317 185.387L230.19 171.038C230.547 169.714 231.905 168.925 233.229 169.287C234.553 169.644 235.331 171.008 234.979 172.327L231.112 186.656C229.947 191.069 225.93 194 221.537 194Z" fill="#D2D2D2"/>
<path d="M244.083 164.25H164.75C159.281 164.25 154.833 159.802 154.833 154.333V94.8332C154.833 89.3641 159.281 84.9165 164.75 84.9165H244.083C249.552 84.9165 254 89.3641 254 94.8332V154.333C254 159.802 249.552 164.25 244.083 164.25ZM164.75 89.8748C162.018 89.8748 159.791 92.1011 159.791 94.8332V154.333C159.791 157.065 162.018 159.292 164.75 159.292H244.083C246.815 159.292 249.041 157.065 249.041 154.333V94.8332C249.041 92.1011 246.815 89.8748 244.083 89.8748H164.75Z" fill="#D2D2D2"/>
<path d="M179.625 119.625C174.156 119.625 169.708 115.177 169.708 109.708C169.708 104.239 174.156 99.7915 179.625 99.7915C185.094 99.7915 189.541 104.239 189.541 109.708C189.541 115.177 185.094 119.625 179.625 119.625ZM179.625 104.75C176.893 104.75 174.666 106.976 174.666 109.708C174.666 112.44 176.893 114.667 179.625 114.667C182.357 114.667 184.583 112.44 184.583 109.708C184.583 106.976 182.357 104.75 179.625 104.75Z" fill="#D2D2D2"/>
<path d="M157.659 158.944C157.024 158.944 156.39 158.701 155.904 158.22C154.937 157.253 154.937 155.682 155.904 154.715L179.322 131.297C182.128 128.49 187.032 128.49 189.839 131.297L196.81 138.268L216.108 115.113C217.511 113.432 219.574 112.455 221.77 112.435H221.825C223.997 112.435 226.054 113.377 227.472 115.028L253.405 145.284C254.297 146.32 254.178 147.887 253.137 148.78C252.1 149.672 250.539 149.558 249.641 148.512L223.709 118.256C223.228 117.701 222.564 117.393 221.825 117.393C221.309 117.349 220.402 117.706 219.921 118.286L198.883 143.529C198.436 144.064 197.787 144.387 197.088 144.416C196.384 144.466 195.714 144.188 195.223 143.692L186.333 134.802C185.396 133.87 183.765 133.87 182.828 134.802L159.409 158.22C158.928 158.701 158.294 158.944 157.659 158.944Z" fill="#D2D2D2"/>
</g>
<defs>
<clipPath id="clip0">
<rect width="119" height="119" fill="white" transform="translate(135 75)"/>
</clipPath>
</defs>
</svg>
