<svg width="90" height="90" viewBox="0 0 90 90" fill="none" xmlns="http://www.w3.org/2000/svg">
<circle cx="45" cy="45" r="45" fill="#F8F8F8"/>
<path d="M29.6545 53.5712C31.5143 51.7115 34.0366 50.6667 36.6667 50.6667H53.3333C55.9634 50.6667 58.4857 51.7115 60.3455 53.5712C62.2052 55.4309 63.25 57.9533 63.25 60.5834V64.75C63.25 65.6245 62.5411 66.3334 61.6667 66.3334C60.7922 66.3334 60.0833 65.6245 60.0833 64.75V60.5834C60.0833 58.7931 59.3722 57.0763 58.1063 55.8104C56.8404 54.5445 55.1235 53.8334 53.3333 53.8334H36.6667C34.8765 53.8334 33.1596 54.5445 31.8937 55.8104C30.6278 57.0763 29.9167 58.7931 29.9167 60.5834V64.75C29.9167 65.6245 29.2078 66.3334 28.3333 66.3334C27.4589 66.3334 26.75 65.6245 26.75 64.75V60.5834C26.75 57.9533 27.7948 55.4309 29.6545 53.5712Z" fill="#D5D5D5" stroke="#F8F8F8" stroke-linecap="round" stroke-linejoin="round"/>
<path d="M44.9987 28.8334C41.2708 28.8334 38.2487 31.8554 38.2487 35.5834C38.2487 39.3113 41.2708 42.3334 44.9987 42.3334C48.7266 42.3334 51.7487 39.3113 51.7487 35.5834C51.7487 31.8554 48.7266 28.8334 44.9987 28.8334ZM35.082 35.5834C35.082 30.1065 39.5219 25.6667 44.9987 25.6667C50.4755 25.6667 54.9154 30.1065 54.9154 35.5834C54.9154 41.0602 50.4755 45.5 44.9987 45.5C39.5219 45.5 35.082 41.0602 35.082 35.5834Z" fill="#D5D5D5" stroke="#F8F8F8" stroke-linecap="round" stroke-linejoin="round"/>
</svg>
