<svg width="32" height="32" viewBox="0 0 32 32" fill="none" xmlns="http://www.w3.org/2000/svg">
<path d="M18 26.55C18.65 26.55 19.25 26.3 19.7 25.85L26.35 19.2C27.3 18.25 27.3 16.75 26.35 15.8L17.45 6.89999C16.65 6.09999 15.2 5.5 14.1 5.5H8.4C7.1 5.5 6 6.59999 6 7.89999V13.6C6 14.7 6.6 16.15 7.4 16.95L16.3 25.85C16.75 26.3 17.35 26.55 18 26.55ZM14.1 7C14.8 7 15.9 7.45 16.4 7.95L25.3 16.85C25.65 17.2 25.65 17.75 25.3 18.1L18.65 24.75C18.3 25.1 17.7 25.1 17.4 24.75L8.5 15.85C8 15.35 7.55 14.3 7.55 13.55V7.85001C7.55 7.35001 7.95 6.95 8.45 6.95H14.1V7Z" fill="#1D1D1F"/>
<path d="M12.0002 14.45C13.6002 14.45 14.9502 13.15 14.9502 11.5C14.9502 9.9 13.6502 8.55 12.0002 8.55C10.4002 8.55 9.05019 9.85 9.05019 11.5C9.05019 13.1 10.3502 14.45 12.0002 14.45ZM12.0002 9.95C12.8502 9.95 13.5502 10.65 13.5502 11.5C13.5502 12.35 12.8502 13.05 12.0002 13.05C11.1502 13.05 10.4502 12.35 10.4502 11.5C10.4502 10.65 11.1502 9.95 12.0002 9.95Z" fill="#1D1D1F"/>
</svg>
