<svg width="362" height="362" viewBox="0 0 362 362" fill="none" xmlns="http://www.w3.org/2000/svg">
<path d="M59.2611 129.472C31.1744 178.211 49.0296 252.176 80.0889 297.023C95.5924 319.444 111.289 339.571 132.787 339.571C133.193 339.571 133.599 339.563 134.015 339.547C144.116 339.144 151.415 336.034 158.472 333.028C166.396 329.652 174.59 326.161 187.443 326.161C199.672 326.161 207.475 329.538 215.021 332.804C222.459 336.022 230.12 339.351 241.439 339.138C265.656 338.687 280.524 316.969 293.642 297.81C307.331 277.806 314.198 258.383 316.515 250.961L316.608 250.666C317.05 249.347 316.426 247.907 315.162 247.326C315.127 247.31 314.998 247.257 314.962 247.241C310.698 245.497 273.291 228.902 272.897 183.672C272.532 146.924 300.96 127.465 306.661 123.938L306.927 123.772C307.545 123.375 307.975 122.744 308.121 122.023C308.267 121.303 308.114 120.553 307.7 119.948C288.078 91.2326 258.004 86.9049 245.896 86.3843C244.139 86.2089 242.325 86.1207 240.504 86.1207C226.282 86.1207 212.659 91.4918 201.714 95.8075C194.159 98.7866 187.633 101.359 183.132 101.359C178.075 101.359 171.512 98.755 163.912 95.74C153.749 91.7064 142.23 87.1359 130.036 87.1359C129.745 87.1359 129.459 87.1391 129.177 87.1446C100.823 87.5618 74.0315 103.783 59.2611 129.472Z" fill="#2E2E2E"/>
<path d="M245.922 7.34767C228.752 8.04698 208.155 18.6161 195.844 33.0358C185.382 45.156 175.161 65.364 177.854 85.7333C178.023 87.0077 179.06 87.9913 180.342 88.0904C181.501 88.1809 182.683 88.2266 183.862 88.2277C200.651 88.2277 218.762 78.9395 231.131 63.9839C244.148 48.1918 250.731 27.925 248.74 9.77129C248.583 8.34871 247.331 7.29212 245.922 7.34767Z" fill="#2E2E2E"/>
</svg>
