<svg width="23" height="23" viewBox="0 0 23 23" fill="none" xmlns="http://www.w3.org/2000/svg">
<circle cx="11.5" cy="11.5" r="11.5" fill="#D2D2D2"/>
<path fill-rule="evenodd" clip-rule="evenodd" d="M16.2502 6.74909C16.5268 7.02571 16.5268 7.47421 16.2502 7.75083L7.75022 16.2508C7.47359 16.5274 7.0251 16.5274 6.74848 16.2508C6.47186 15.9742 6.47186 15.5257 6.74848 15.2491L15.2485 6.74909C15.5251 6.47247 15.9736 6.47247 16.2502 6.74909Z" fill="white"/>
<path fill-rule="evenodd" clip-rule="evenodd" d="M6.74848 6.74909C7.0251 6.47247 7.47359 6.47247 7.75022 6.74909L16.2502 15.2491C16.5268 15.5257 16.5268 15.9742 16.2502 16.2508C15.9736 16.5274 15.5251 16.5274 15.2485 16.2508L6.74848 7.75083C6.47186 7.47421 6.47186 7.02571 6.74848 6.74909Z" fill="white"/>
</svg>
