<svg width="82" height="100" viewBox="0 0 82 100" fill="none" xmlns="http://www.w3.org/2000/svg">
<mask id="mask0_4906_1583" style="mask-type:alpha" maskUnits="userSpaceOnUse" x="16" y="42" width="43" height="54">
<path fill-rule="evenodd" clip-rule="evenodd" d="M37.5068 44.4114C32.3351 44.4114 28.1425 48.6039 28.1425 53.7757V59.8018H46.8711V53.7757C46.8711 48.6039 42.6786 44.4114 37.5068 44.4114ZM49.2122 59.8018V53.7757C49.2122 47.311 43.9715 42.0703 37.5068 42.0703C31.0421 42.0703 25.8015 47.311 25.8015 53.7757V59.8018H20.0951C18.1557 59.8018 16.5835 61.374 16.5835 63.3134V91.5613C16.5835 93.5007 18.1557 95.0729 20.0951 95.0729H54.9185C56.858 95.0729 58.4301 93.5007 58.4301 91.5613V63.3134C58.4301 61.374 56.8579 59.8018 54.9185 59.8018H49.2122ZM20.0951 62.1429C19.4486 62.1429 18.9246 62.667 18.9246 63.3134V91.5613C18.9246 92.2077 19.4486 92.7318 20.0951 92.7318H54.9185C55.565 92.7318 56.0891 92.2077 56.0891 91.5613V63.3134C56.0891 62.667 55.565 62.1429 54.9185 62.1429H48.0416H26.972H20.0951Z" fill="white"/>
</mask>
<g mask="url(#mask0_4906_1583)">
<path fill-rule="evenodd" clip-rule="evenodd" d="M37.5068 44.4114C32.3351 44.4114 28.1425 48.6039 28.1425 53.7757V59.8018H46.8711V53.7757C46.8711 48.6039 42.6786 44.4114 37.5068 44.4114ZM49.2122 59.8018V53.7757C49.2122 47.311 43.9715 42.0703 37.5068 42.0703C31.0421 42.0703 25.8015 47.311 25.8015 53.7757V59.8018H20.0951C18.1557 59.8018 16.5835 61.374 16.5835 63.3134V91.5613C16.5835 93.5007 18.1557 95.0729 20.0951 95.0729H54.9185C56.858 95.0729 58.4301 93.5007 58.4301 91.5613V63.3134C58.4301 61.374 56.8579 59.8018 54.9185 59.8018H49.2122ZM20.0951 62.1429C19.4486 62.1429 18.9246 62.667 18.9246 63.3134V91.5613C18.9246 92.2077 19.4486 92.7318 20.0951 92.7318H54.9185C55.565 92.7318 56.0891 92.2077 56.0891 91.5613V63.3134C56.0891 62.667 55.565 62.1429 54.9185 62.1429H48.0416H26.972H20.0951Z" fill="#5E8BCE"/>
<path d="M28.1423 59.8019H27.9423V60.0019H28.1423V59.8019ZM46.8709 59.8019V60.0019H47.0709V59.8019H46.8709ZM49.212 59.8019H49.012V60.0019H49.212V59.8019ZM25.8013 59.8019V60.0019H26.0013V59.8019H25.8013ZM28.3423 53.7758C28.3423 48.7145 32.4453 44.6115 37.5066 44.6115V44.2115C32.2244 44.2115 27.9423 48.4936 27.9423 53.7758H28.3423ZM28.3423 59.8019V53.7758H27.9423V59.8019H28.3423ZM46.8709 59.6019H28.1423V60.0019H46.8709V59.6019ZM46.6709 53.7758V59.8019H47.0709V53.7758H46.6709ZM37.5066 44.6115C42.5679 44.6115 46.6709 48.7145 46.6709 53.7758H47.0709C47.0709 48.4936 42.7888 44.2115 37.5066 44.2115V44.6115ZM49.412 59.8019V53.7758H49.012V59.8019H49.412ZM49.412 53.7758C49.412 47.2006 44.0818 41.8704 37.5066 41.8704V42.2704C43.8609 42.2704 49.012 47.4215 49.012 53.7758H49.412ZM37.5066 41.8704C30.9315 41.8704 25.6013 47.2006 25.6013 53.7758H26.0013C26.0013 47.4215 31.1524 42.2704 37.5066 42.2704V41.8704ZM25.6013 53.7758V59.8019H26.0013V53.7758H25.6013ZM25.8013 59.6019H20.0949V60.0019H25.8013V59.6019ZM20.0949 59.6019C18.045 59.6019 16.3833 61.2637 16.3833 63.3135H16.7833C16.7833 61.4846 18.266 60.0019 20.0949 60.0019V59.6019ZM16.3833 63.3135V91.5614H16.7833V63.3135H16.3833ZM16.3833 91.5614C16.3833 93.6112 18.045 95.273 20.0949 95.273V94.873C18.266 94.873 16.7833 93.3903 16.7833 91.5614H16.3833ZM20.0949 95.273H54.9183V94.873H20.0949V95.273ZM54.9183 95.273C56.9682 95.273 58.6299 93.6112 58.6299 91.5614H58.2299C58.2299 93.3903 56.7473 94.873 54.9183 94.873V95.273ZM58.6299 91.5614V63.3135H58.2299V91.5614H58.6299ZM58.6299 63.3135C58.6299 61.2637 56.9682 59.6019 54.9183 59.6019V60.0019C56.7473 60.0019 58.2299 61.4846 58.2299 63.3135H58.6299ZM54.9183 59.6019H49.212V60.0019H54.9183V59.6019ZM19.1244 63.3135C19.1244 62.7775 19.5589 62.343 20.0949 62.343V61.943C19.338 61.943 18.7244 62.5566 18.7244 63.3135H19.1244ZM19.1244 91.5614V63.3135H18.7244V91.5614H19.1244ZM20.0949 92.5319C19.5589 92.5319 19.1244 92.0974 19.1244 91.5614H18.7244C18.7244 92.3183 19.338 92.9319 20.0949 92.9319V92.5319ZM54.9183 92.5319H20.0949V92.9319H54.9183V92.5319ZM55.8889 91.5614C55.8889 92.0974 55.4543 92.5319 54.9183 92.5319V92.9319C55.6753 92.9319 56.2889 92.3183 56.2889 91.5614H55.8889ZM55.8889 63.3135V91.5614H56.2889V63.3135H55.8889ZM54.9183 62.343C55.4544 62.343 55.8889 62.7775 55.8889 63.3135H56.2889C56.2889 62.5566 55.6753 61.943 54.9183 61.943V62.343ZM48.0414 62.343H54.9183V61.943H48.0414V62.343ZM26.9718 62.343H48.0414V61.943H26.9718V62.343ZM20.0949 62.343H26.9718V61.943H20.0949V62.343Z" fill="white"/>
<path d="M26.9653 69.0999H48.3403" stroke="#5E8BCE" stroke-width="2.03571" stroke-linecap="round"/>
</g>
</svg>
