<svg width="17" height="17" viewBox="0 0 17 17" fill="none" xmlns="http://www.w3.org/2000/svg">
<path fill-rule="evenodd" clip-rule="evenodd" d="M2.12508 9.91663C2.51628 9.91663 2.83341 10.2338 2.83341 10.625V13.4583C2.83341 13.6462 2.90804 13.8263 3.04088 13.9592C3.17372 14.092 3.35389 14.1666 3.54175 14.1666H13.4584C13.6463 14.1666 13.8264 14.092 13.9593 13.9592C14.0921 13.8263 14.1667 13.6462 14.1667 13.4583V10.625C14.1667 10.2338 14.4839 9.91663 14.8751 9.91663C15.2663 9.91663 15.5834 10.2338 15.5834 10.625V13.4583C15.5834 14.0219 15.3595 14.5624 14.961 14.9609C14.5625 15.3594 14.022 15.5833 13.4584 15.5833H3.54175C2.97816 15.5833 2.43766 15.3594 2.03915 14.9609C1.64063 14.5624 1.41675 14.0219 1.41675 13.4583V10.625C1.41675 10.2338 1.73388 9.91663 2.12508 9.91663Z" fill="#5E8BCE"/>
<path fill-rule="evenodd" clip-rule="evenodd" d="M7.99921 1.62409C8.27584 1.34747 8.72433 1.34747 9.00095 1.62409L12.5426 5.16576C12.8192 5.44238 12.8192 5.89087 12.5426 6.16749C12.266 6.44411 11.8175 6.44411 11.5409 6.16749L8.50008 3.12669L5.45928 6.16749C5.18266 6.44411 4.73417 6.44411 4.45755 6.16749C4.18093 5.89087 4.18093 5.44238 4.45755 5.16576L7.99921 1.62409Z" fill="#5E8BCE"/>
<path fill-rule="evenodd" clip-rule="evenodd" d="M8.50008 1.41663C8.89128 1.41663 9.20841 1.73376 9.20841 2.12496V10.625C9.20841 11.0162 8.89128 11.3333 8.50008 11.3333C8.10888 11.3333 7.79175 11.0162 7.79175 10.625V2.12496C7.79175 1.73376 8.10888 1.41663 8.50008 1.41663Z" fill="#5E8BCE"/>
</svg>
