<svg width="44" height="44" viewBox="0 0 44 44" fill="none" xmlns="http://www.w3.org/2000/svg">
<path d="M40.367 9.27899C40.235 9.01499 40.015 8.79499 39.707 8.75099C39.399 8.70699 39.135 8.79499 38.915 8.97099L35.351 12.535C34.867 13.019 34.207 13.327 33.503 13.327C32.799 13.327 32.139 13.063 31.655 12.535C30.643 11.523 30.643 9.85099 31.655 8.79499L35.219 5.23099C35.439 5.01099 35.527 4.74699 35.439 4.43899C35.351 4.13099 35.175 3.91099 34.911 3.77899C31.127 2.19499 26.771 3.07499 23.867 5.97899C21.095 8.75099 20.171 12.799 21.447 16.451L4.287 33.699C2.571 35.415 2.571 38.187 4.287 39.903C5.123 40.739 6.267 41.179 7.411 41.179C8.555 41.179 9.655 40.739 10.535 39.903L27.739 22.699C31.391 23.975 35.439 23.051 38.211 20.279C41.071 17.419 41.951 13.063 40.367 9.27899ZM36.935 19.091C34.515 21.511 30.951 22.215 27.827 20.895C27.519 20.763 27.123 20.851 26.859 21.071L9.259 38.671C8.247 39.683 6.575 39.683 5.519 38.671C4.463 37.659 4.507 35.987 5.519 34.931L23.119 17.331C23.383 17.067 23.427 16.715 23.295 16.363C21.975 13.239 22.679 9.63099 25.099 7.25499C26.683 5.67099 28.839 4.79099 30.995 4.79099C31.655 4.79099 32.271 4.87899 32.931 5.01099L30.423 7.56299C28.707 9.27899 28.707 12.051 30.423 13.767C31.259 14.603 32.359 15.043 33.547 15.043C34.735 15.043 35.835 14.603 36.671 13.767L39.223 11.215C39.839 14.031 39.003 16.979 36.935 19.091Z" fill="#333333"/>
</svg>
