<svg width="14" height="14" viewBox="0 0 14 14" fill="none" xmlns="http://www.w3.org/2000/svg">
<path fill-rule="evenodd" clip-rule="evenodd" d="M10.9124 3.08748C11.1402 3.31529 11.1402 3.68463 10.9124 3.91244L3.91244 10.9124C3.68463 11.1402 3.31529 11.1402 3.08748 10.9124C2.85967 10.6846 2.85967 10.3153 3.08748 10.0875L10.0875 3.08748C10.3153 2.85967 10.6846 2.85967 10.9124 3.08748Z" fill="#BE2222"/>
<path fill-rule="evenodd" clip-rule="evenodd" d="M3.08748 3.08748C3.31529 2.85967 3.68463 2.85967 3.91244 3.08748L10.9124 10.0875C11.1402 10.3153 11.1402 10.6846 10.9124 10.9124C10.6846 11.1402 10.3153 11.1402 10.0875 10.9124L3.08748 3.91244C2.85967 3.68463 2.85967 3.31529 3.08748 3.08748Z" fill="#BE2222"/>
</svg>
