<svg width="12" height="12" viewBox="0 0 12 12" fill="none" xmlns="http://www.w3.org/2000/svg">
<path d="M6 11.5C2.95 11.5 0.5 9.05 0.5 6C0.5 2.95 2.95 0.5 6 0.5C9.05 0.5 11.5 2.95 11.5 6C11.5 9.05 9.05 11.5 6 11.5ZM6 1.5C3.5 1.5 1.5 3.5 1.5 6C1.5 8.5 3.5 10.5 6 10.5C8.5 10.5 10.5 8.5 10.5 6C10.5 3.5 8.5 1.5 6 1.5Z" fill="#828282"/>
<path d="M6 6.5C5.7 6.5 5.5 6.3 5.5 6V4C5.5 3.7 5.7 3.5 6 3.5C6.3 3.5 6.5 3.7 6.5 4V6C6.5 6.3 6.3 6.5 6 6.5Z" fill="#828282"/>
<path d="M6 8.5C5.85 8.5 5.75 8.45 5.65 8.35C5.55 8.25 5.5 8.15 5.5 8C5.5 7.95 5.5 7.85 5.55 7.8C5.6 7.75 5.6 7.7 5.65 7.65C5.8 7.5 6 7.45 6.2 7.55C6.25 7.55 6.25 7.55 6.3 7.6C6.3 7.6 6.35 7.65 6.4 7.65C6.45 7.7 6.5 7.75 6.5 7.8C6.5 7.85 6.5 7.95 6.5 8C6.5 8.05 6.5 8.15 6.45 8.2C6.4 8.25 6.4 8.3 6.35 8.35C6.25 8.45 6.15 8.5 6 8.5Z" fill="#828282"/>
</svg>
