<svg width="43" height="43" viewBox="0 0 43 43" fill="none" xmlns="http://www.w3.org/2000/svg">
<path d="M21.12 0C9.47496 0 0 9.47496 0 21.12C0 32.765 9.47496 42.24 21.12 42.24C32.765 42.24 42.24 32.765 42.24 21.12C42.24 9.47496 32.765 0 21.12 0ZM21.12 40.48C10.4447 40.48 1.76 31.7953 1.76 21.12C1.76 10.4447 10.4447 1.76 21.12 1.76C31.7953 1.76 40.48 10.4447 40.48 21.12C40.48 31.7953 31.7953 40.48 21.12 40.48Z" fill="#333333"/>
<path d="M19.3592 10.56H22.8792C25.3054 10.56 27.2792 12.5338 27.2792 14.96H29.0392C29.0392 11.5632 26.2751 8.79997 22.8792 8.79997H21.9992V6.15997H20.2392V8.79997H19.3592C15.9633 8.79997 13.1992 11.5632 13.1992 14.96V15.84C13.1992 19.2368 15.9633 22 19.3592 22H22.8792C25.3054 22 27.2792 23.9738 27.2792 26.4V27.28C27.2792 29.7061 25.3054 31.68 22.8792 31.68H19.3592C16.9331 31.68 14.9592 29.7061 14.9592 27.28H13.1992C13.1992 30.6768 15.9633 33.44 19.3592 33.44H20.2392V36.08H21.9992V33.44H22.8792C26.2751 33.44 29.0392 30.6768 29.0392 27.28V26.4C29.0392 23.0032 26.2751 20.24 22.8792 20.24H19.3592C16.9331 20.24 14.9592 18.2661 14.9592 15.84V14.96C14.9592 12.5338 16.9331 10.56 19.3592 10.56Z" fill="#333333"/>
</svg>
