<svg width="46" height="46" viewBox="0 0 46 46" fill="none" xmlns="http://www.w3.org/2000/svg">
<path d="M39.2917 15.3333H6.70833M8.75 40.25H37.25C38.9069 40.25 40.25 38.9069 40.25 37.25V12.5833C40.25 10.9265 38.9069 9.58333 37.25 9.58333H8.75C7.09315 9.58333 5.75 10.9265 5.75 12.5833V37.25C5.75 38.9069 7.09315 40.25 8.75 40.25Z" stroke="#BDBDBD" stroke-width="1.5" stroke-linecap="round"/>
<path d="M14.375 9.58333V5.27083" stroke="#BDBDBD" stroke-width="1.5" stroke-linecap="round" stroke-linejoin="round"/>
<path d="M31.625 9.58333V5.27083" stroke="#BDBDBD" stroke-width="1.5" stroke-linecap="round" stroke-linejoin="round"/>
<path d="M15.8125 33.5417H12.9375M15.8125 27.7917H12.9375M15.8125 22.0417H12.9375M24.4375 33.5417H21.5625M24.4375 27.7917H21.5625M24.4375 22.0417H21.5625M33.0625 33.5417H30.1875M33.0625 27.7917H30.1875M33.0625 22.0417H30.1875" stroke="#BDBDBD" stroke-width="1.5" stroke-linecap="round"/>
</svg>
