<svg width="56" height="56" viewBox="0 0 56 56" fill="none" xmlns="http://www.w3.org/2000/svg">
<circle cx="28" cy="28" r="28" fill="white"/>
<circle cx="28" cy="28" r="27.75" stroke="#12121D" stroke-opacity="0.1" stroke-width="0.5"/>
<g clip-path="url(#clip0_520_3246)">
<path d="M20.2662 25.765C20.7341 24.3494 21.6371 23.1178 22.8463 22.2458C24.0556 21.3738 25.5094 20.9059 27.0002 20.909C28.6902 20.909 30.2182 21.509 31.4182 22.491L34.9102 19C32.7822 17.145 30.0552 16 27.0002 16C22.2702 16 18.1982 18.698 16.2402 22.65L20.2662 25.765Z" fill="#EA4335"/>
<path d="M31.0393 34.0131C29.9493 34.7161 28.5653 35.0911 26.9993 35.0911C25.5144 35.0941 24.0661 34.63 22.8596 33.7644C21.653 32.8988 20.7493 31.6757 20.2763 30.2681L16.2363 33.3351C17.2276 35.3414 18.7616 37.0295 20.6642 38.2076C22.5667 39.3858 24.7615 40.0068 26.9993 40.0001C29.9323 40.0001 32.7343 38.9571 34.8333 37.0001L31.0403 34.0131H31.0393Z" fill="#34A853"/>
<path d="M34.834 36.9999C37.029 34.9519 38.454 31.9039 38.454 27.9999C38.454 27.2899 38.345 26.5269 38.182 25.8179H27V30.4549H33.436C33.119 32.0139 32.266 33.2209 31.041 34.0129L34.834 36.9999Z" fill="#4A90E2"/>
<path d="M20.2771 30.2679C20.0325 29.5368 19.9082 28.7708 19.9091 27.9999C19.9091 27.2179 20.0341 26.4669 20.2661 25.7649L16.2401 22.6499C15.4165 24.3126 14.9919 26.1444 15.0001 27.9999C15.0001 29.9199 15.4451 31.7299 16.2371 33.3349L20.2771 30.2679Z" fill="#FBBC05"/>
</g>
<defs>
<clipPath id="clip0_520_3246">
<rect width="24" height="24" fill="white" transform="translate(15 16)"/>
</clipPath>
</defs>
</svg>
