<svg width="152" height="152" viewBox="0 0 152 152" fill="none" xmlns="http://www.w3.org/2000/svg">
<rect x="1" y="1" width="150" height="150" rx="5" stroke="#D2D2D7"/>
<g clip-path="url(#clip0)">
<path d="M105.113 57.4064C105.403 57.4064 105.682 57.2911 105.887 57.086C106.092 56.8809 106.207 56.6027 106.207 56.3126V52.6704C106.206 51.7205 105.828 50.8098 105.156 50.1381C104.485 49.4663 103.574 49.0885 102.624 49.0873H96.7462L95.4053 45.1301C95.3142 44.861 95.1219 44.6379 94.8691 44.5081C94.6164 44.3782 94.3231 44.3519 94.0512 44.4345L62.2165 54.112C61.9531 54.2081 61.7364 54.4016 61.6113 54.6526C61.4862 54.9037 61.4621 55.1931 61.5439 55.4614C61.6258 55.7297 61.8074 55.9563 62.0513 56.0947C62.2953 56.2332 62.583 56.2728 62.8553 56.2054L93.675 46.8342L96.6128 55.5076C96.7059 55.7823 96.9043 56.0088 97.1644 56.1372C97.4245 56.2656 97.725 56.2854 97.9997 56.1923C98.2744 56.0992 98.5008 55.9008 98.6292 55.6407C98.7576 55.3806 98.7775 55.0801 98.6844 54.8054L97.4878 51.2726H102.626C103.396 51.2726 104.022 51.8982 104.022 52.6682V56.3126C104.02 56.9164 104.51 57.4064 105.113 57.4064Z" fill="#333333"/>
<path d="M113.844 73.8128C113.554 73.8128 113.275 73.9281 113.07 74.1332C112.865 74.3383 112.75 74.6165 112.75 74.9066C112.75 75.1967 112.865 75.4749 113.07 75.68C113.275 75.8851 113.554 76.0003 113.844 76.0003C114.612 76.0003 114.938 76.3263 114.938 77.0941V90.2191C114.938 90.9869 114.612 91.3128 113.844 91.3128H96.3438C95.5759 91.3128 95.25 90.9869 95.25 90.2191V79.2816C95.25 78.5138 95.5759 78.1878 96.3438 78.1878H109.469C109.759 78.1878 110.037 78.0726 110.242 77.8675C110.447 77.6624 110.562 77.3842 110.562 77.0941V63.9691C110.562 61.9763 109.274 60.6878 107.281 60.6878H40.5625C37.8653 60.6878 36.1875 59.01 36.1875 56.3128C36.1875 53.6157 37.8653 51.9378 40.5625 51.9378H51.6663L45.0469 54.121C44.9055 54.1617 44.7738 54.2306 44.6597 54.3234C44.5456 54.4163 44.4514 54.5312 44.3827 54.6613C44.314 54.7914 44.2723 54.934 44.26 55.0806C44.2477 55.2272 44.2651 55.3748 44.3112 55.5145C44.3573 55.6542 44.4311 55.7832 44.5282 55.8937C44.6253 56.0042 44.7437 56.094 44.8763 56.1578C45.0089 56.2215 45.153 56.2578 45.2999 56.2645C45.4469 56.2712 45.5937 56.2482 45.7316 56.1969L85.3669 43.131C85.5033 43.0859 85.6296 43.0143 85.7384 42.9204C85.8472 42.8266 85.9364 42.7122 86.001 42.5838C86.0656 42.4554 86.1043 42.3156 86.1148 42.1722C86.1254 42.0289 86.1076 41.8849 86.0625 41.7485C86.0174 41.612 85.9459 41.4858 85.852 41.377C85.7581 41.2682 85.6437 41.1789 85.5153 41.1143C85.3869 41.0497 85.2471 41.0111 85.1038 41.0005C84.9604 40.99 84.8164 41.0077 84.68 41.0528L58.2113 49.781C58.1609 49.7722 58.115 49.7503 58.0625 49.7503H40.5625C36.6381 49.7503 34 52.3885 34 56.3128V104.438C34 108.362 36.6381 111 40.5625 111H107.281C109.274 111 110.562 109.712 110.562 107.719V96.7816C110.562 96.4915 110.447 96.2133 110.242 96.0082C110.037 95.8031 109.759 95.6878 109.469 95.6878C109.179 95.6878 108.9 95.8031 108.695 96.0082C108.49 96.2133 108.375 96.4915 108.375 96.7816V107.719C108.375 108.487 108.049 108.813 107.281 108.813H40.5625C37.8653 108.813 36.1875 107.135 36.1875 104.438V61.3703C37.3097 62.3175 38.795 62.8753 40.5625 62.8753H107.281C108.049 62.8753 108.375 63.2013 108.375 63.9691V76.0003H96.3438C94.3509 76.0003 93.0625 77.2888 93.0625 79.2816V90.2191C93.0625 92.2119 94.3509 93.5003 96.3438 93.5003H113.844C115.837 93.5003 117.125 92.2119 117.125 90.2191V77.0941C117.125 75.1013 115.837 73.8128 113.844 73.8128Z" fill="#333333"/>
<path d="M104 86.9375C105.208 86.9375 106.188 85.9581 106.188 84.75C106.188 83.5419 105.208 82.5625 104 82.5625C102.792 82.5625 101.812 83.5419 101.812 84.75C101.812 85.9581 102.792 86.9375 104 86.9375Z" fill="#333333"/>
<path fill-rule="evenodd" clip-rule="evenodd" d="M79.7467 75.8368C80.2511 76.3412 80.2511 77.1591 79.7467 77.6635L65.5383 91.8718C65.0339 92.3763 64.2161 92.3763 63.7117 91.8718L57.2533 85.4135C56.7489 84.9091 56.7489 84.0912 57.2533 83.5868C57.7577 83.0824 58.5756 83.0824 59.08 83.5868L64.625 89.1318L77.92 75.8368C78.4244 75.3324 79.2423 75.3324 79.7467 75.8368Z" fill="#C4C4C4"/>
</g>
<path d="M18.7217 25.2549C17.1748 25.2549 15.959 24.666 15.0742 23.4883C14.1953 22.3047 13.7559 20.6904 13.7559 18.6455C13.7559 16.6123 14.1982 15.0068 15.083 13.8291C15.9678 12.6514 17.1807 12.0625 18.7217 12.0625C20.2627 12.0625 21.4727 12.6514 22.3516 13.8291C23.2305 15.001 23.6699 16.6035 23.6699 18.6367C23.6699 20.6758 23.2305 22.29 22.3516 23.4795C21.4727 24.6631 20.2627 25.2549 18.7217 25.2549ZM18.7217 23.4004C19.5596 23.4004 20.21 22.9814 20.6729 22.1436C21.1416 21.3057 21.376 20.1396 21.376 18.6455C21.376 17.1631 21.1416 16.0059 20.6729 15.1738C20.2041 14.3359 19.5537 13.917 18.7217 13.917C17.8896 13.917 17.2334 14.3359 16.7529 15.1738C16.2783 16.0117 16.041 17.166 16.041 18.6367C16.041 20.1309 16.2754 21.2998 16.7441 22.1436C17.2188 22.9814 17.8779 23.4004 18.7217 23.4004ZM31.4043 25V22.6006H25.0762V20.6494C26.1191 18.6807 27.874 15.9033 30.3408 12.3174H33.5664V20.7461H35.2715V22.6006H33.5664V25H31.4043ZM27.1328 20.7373V20.7988H31.4395V13.9961H31.4043C30.332 15.5488 29.4736 16.832 28.8291 17.8457C28.1846 18.8594 27.6191 19.8232 27.1328 20.7373Z" fill="#D2D2D2"/>
<defs>
<clipPath id="clip0">
<rect width="83.125" height="70" fill="white" transform="translate(34 41)"/>
</clipPath>
</defs>
</svg>
