<svg width="46" height="46" viewBox="0 0 46 46" fill="none" xmlns="http://www.w3.org/2000/svg">
<path d="M4.73398 23C4.73398 22.5029 4.33104 22.1 3.83398 22.1C3.33693 22.1 2.93398 22.5029 2.93398 23H4.73398ZM9.44783 9.44705L8.81144 8.81065L8.81143 8.81065L9.44783 9.44705ZM7.39489 11.5H6.49489C6.49489 11.997 6.89783 12.4 7.39489 12.4V11.5ZM8.29489 2.875C8.29489 2.37794 7.89195 1.975 7.39489 1.975C6.89783 1.975 6.49489 2.37794 6.49489 2.875H8.29489ZM16.0241 12.4C16.5212 12.4 16.9241 11.997 16.9241 11.5C16.9241 11.0029 16.5212 10.6 16.0241 10.6V12.4ZM41.2673 23C41.2673 33.0884 33.0891 41.2667 23.0007 41.2667V43.0667C34.0832 43.0667 43.0673 34.0825 43.0673 23H41.2673ZM23.0007 41.2667C12.9122 41.2667 4.73398 33.0884 4.73398 23H2.93398C2.93398 34.0825 11.9181 43.0667 23.0007 43.0667V41.2667ZM23.0007 4.73332C33.0891 4.73332 41.2673 12.9116 41.2673 23H43.0673C43.0673 11.9175 34.0832 2.93332 23.0007 2.93332V4.73332ZM10.0842 10.0834C13.3908 6.77688 17.9562 4.73332 23.0007 4.73332V2.93332C17.4597 2.93332 12.4418 5.18032 8.81144 8.81065L10.0842 10.0834ZM8.81143 8.81065L6.75849 10.8636L8.03129 12.1364L10.0842 10.0834L8.81143 8.81065ZM8.29489 11.5V2.875H6.49489V11.5H8.29489ZM7.39489 12.4H16.0241V10.6H7.39489V12.4Z" fill="#BDBDBD"/>
<path d="M23 12.4583V23L28.75 28.75" stroke="#BDBDBD" stroke-width="1.8" stroke-linecap="round" stroke-linejoin="round"/>
</svg>
