<svg width="30" height="30" viewBox="0 0 30 30" fill="none" xmlns="http://www.w3.org/2000/svg">
<path d="M3.4 15C3.4 14.5029 2.99706 14.1 2.5 14.1C2.00294 14.1 1.6 14.5029 1.6 15H3.4ZM6.1612 6.16112L5.52481 5.52472L5.52481 5.52472L6.1612 6.16112ZM4.82233 7.49999H3.92233C3.92233 7.99705 4.32527 8.39999 4.82233 8.39999V7.49999ZM5.72233 1.875C5.72233 1.37794 5.31939 0.975 4.82233 0.975C4.32527 0.975 3.92233 1.37794 3.92233 1.875H5.72233ZM10.4501 8.39999C10.9471 8.39999 11.3501 7.99705 11.3501 7.49999C11.3501 7.00293 10.9471 6.59999 10.4501 6.59999V8.39999ZM26.6 15C26.6 21.4065 21.4065 26.6 15 26.6V28.4C22.4006 28.4 28.4 22.4006 28.4 15H26.6ZM15 26.6C8.5935 26.6 3.4 21.4065 3.4 15H1.6C1.6 22.4006 7.59938 28.4 15 28.4V26.6ZM15 3.39999C21.4065 3.39999 26.6 8.59349 26.6 15H28.4C28.4 7.59937 22.4006 1.59999 15 1.59999V3.39999ZM6.7976 6.79752C8.89777 4.69736 11.7965 3.39999 15 3.39999V1.59999C11.3 1.59999 7.94874 3.10081 5.52481 5.52472L6.7976 6.79752ZM5.52481 5.52472L4.18593 6.86359L5.45873 8.13639L6.7976 6.79751L5.52481 5.52472ZM5.72233 7.49999V1.875H3.92233V7.49999H5.72233ZM4.82233 8.39999H10.4501V6.59999H4.82233V8.39999Z" fill="#5E8BCE"/>
<path d="M15 8.125V15L18.75 18.75" stroke="#5E8BCE" stroke-width="1.8" stroke-linecap="round" stroke-linejoin="round"/>
</svg>
