<svg width="44" height="44" viewBox="0 0 44 44" fill="none" xmlns="http://www.w3.org/2000/svg">
<path d="M40.3333 23.8333C40.3333 23.104 40.0436 22.4045 39.5279 21.8888C39.0121 21.3731 38.3127 21.0833 37.5833 21.0833V15.5833C37.5833 11.4504 35.9415 7.48669 33.0191 4.56425C30.0966 1.64181 26.133 0 22 0C17.867 0 13.9034 1.64181 10.9809 4.56425C8.05848 7.48669 6.41667 11.4504 6.41667 15.5833V21.0833C5.68732 21.0833 4.98785 21.3731 4.47212 21.8888C3.9564 22.4045 3.66667 23.104 3.66667 23.8333C2.69421 23.8333 1.76158 24.2196 1.07394 24.9073C0.386308 25.5949 0 26.5275 0 27.5C0 28.4725 0.386308 29.4051 1.07394 30.0927C1.76158 30.7804 2.69421 31.1667 3.66667 31.1667C3.66667 31.896 3.9564 32.5955 4.47212 33.1112C4.98785 33.6269 5.68732 33.9167 6.41667 33.9167H10.0833C10.3264 33.9167 10.5596 33.8201 10.7315 33.6482C10.9034 33.4763 11 33.2431 11 33V22C11 21.7569 10.9034 21.5237 10.7315 21.3518C10.5596 21.1799 10.3264 21.0833 10.0833 21.0833H8.25V15.5833C8.25 11.9366 9.69866 8.43924 12.2773 5.86062C14.8559 3.28199 18.3533 1.83333 22 1.83333C25.6467 1.83333 29.1441 3.28199 31.7227 5.86062C34.3013 8.43924 35.75 11.9366 35.75 15.5833V21.0833H33.9167C33.6736 21.0833 33.4404 21.1799 33.2685 21.3518C33.0966 21.5237 33 21.7569 33 22V33C33 33.2431 33.0966 33.4763 33.2685 33.6482C33.4404 33.8201 33.6736 33.9167 33.9167 33.9167H35.75V35.75C35.75 36.9656 35.2671 38.1314 34.4076 38.9909C33.548 39.8504 32.3822 40.3333 31.1667 40.3333H26.4183C26.2292 39.7984 25.8793 39.3351 25.4165 39.0069C24.9537 38.6786 24.4007 38.5016 23.8333 38.5H20.1667C19.4373 38.5 18.7378 38.7897 18.2221 39.3055C17.7064 39.8212 17.4167 40.5207 17.4167 41.25C17.4167 41.9793 17.7064 42.6788 18.2221 43.1945C18.7378 43.7103 19.4373 44 20.1667 44H23.8333C24.4007 43.9984 24.9537 43.8214 25.4165 43.4931C25.8793 43.1649 26.2292 42.7016 26.4183 42.1667H31.1667C32.8685 42.1667 34.5006 41.4906 35.7039 40.2873C36.9073 39.0839 37.5833 37.4518 37.5833 35.75V33.9167C38.3127 33.9167 39.0121 33.6269 39.5279 33.1112C40.0436 32.5955 40.3333 31.896 40.3333 31.1667C41.3058 31.1667 42.2384 30.7804 42.9261 30.0927C43.6137 29.4051 44 28.4725 44 27.5C44 26.5275 43.6137 25.5949 42.9261 24.9073C42.2384 24.2196 41.3058 23.8333 40.3333 23.8333ZM1.83333 27.5C1.83333 27.0138 2.02649 26.5475 2.3703 26.2036C2.71412 25.8598 3.18044 25.6667 3.66667 25.6667V29.3333C3.18044 29.3333 2.71412 29.1402 2.3703 28.7964C2.02649 28.4525 1.83333 27.9862 1.83333 27.5ZM9.16667 32.0833H6.41667C6.17355 32.0833 5.94039 31.9868 5.76849 31.8148C5.59658 31.6429 5.5 31.4098 5.5 31.1667V23.8333C5.5 23.5902 5.59658 23.3571 5.76849 23.1852C5.94039 23.0132 6.17355 22.9167 6.41667 22.9167H9.16667V32.0833ZM23.8333 42.1667H20.1667C19.9236 42.1667 19.6904 42.0701 19.5185 41.8982C19.3466 41.7263 19.25 41.4931 19.25 41.25C19.25 41.0069 19.3466 40.7737 19.5185 40.6018C19.6904 40.4299 19.9236 40.3333 20.1667 40.3333H23.8333C24.0764 40.3333 24.3096 40.4299 24.4815 40.6018C24.6534 40.7737 24.75 41.0069 24.75 41.25C24.75 41.4931 24.6534 41.7263 24.4815 41.8982C24.3096 42.0701 24.0764 42.1667 23.8333 42.1667ZM38.5 31.1667C38.5 31.4098 38.4034 31.6429 38.2315 31.8148C38.0596 31.9868 37.8265 32.0833 37.5833 32.0833H34.8333V22.9167H37.5833C37.8265 22.9167 38.0596 23.0132 38.2315 23.1852C38.4034 23.3571 38.5 23.5902 38.5 23.8333V31.1667ZM40.3333 29.3333V25.6667C40.8196 25.6667 41.2859 25.8598 41.6297 26.2036C41.9735 26.5475 42.1667 27.0138 42.1667 27.5C42.1667 27.9862 41.9735 28.4525 41.6297 28.7964C41.2859 29.1402 40.8196 29.3333 40.3333 29.3333Z" fill="#333333"/>
</svg>
