<svg width="30" height="30" viewBox="0 0 30 30" fill="none" xmlns="http://www.w3.org/2000/svg">
<path d="M5.68665 19.4366C6.83062 18.2927 8.38218 17.65 10 17.65H20C21.6178 17.65 23.1694 18.2927 24.3134 19.4366C25.4573 20.5806 26.1 22.1322 26.1 23.75V26.25C26.1 26.8575 25.6075 27.35 25 27.35C24.3925 27.35 23.9 26.8575 23.9 26.25V23.75C23.9 22.7157 23.4891 21.7237 22.7577 20.9923C22.0263 20.2609 21.0343 19.85 20 19.85H10C8.96566 19.85 7.97368 20.2609 7.24228 20.9923C6.51089 21.7237 6.1 22.7157 6.1 23.75V26.25C6.1 26.8575 5.60751 27.35 5 27.35C4.39249 27.35 3.9 26.8575 3.9 26.25V23.75C3.9 22.1322 4.54268 20.5806 5.68665 19.4366Z" fill="#5E8BCE" stroke="white" stroke-width="0.3" stroke-linecap="round" stroke-linejoin="round"/>
<path d="M15 4.85C12.8461 4.85 11.1 6.59609 11.1 8.75C11.1 10.9039 12.8461 12.65 15 12.65C17.1539 12.65 18.9 10.9039 18.9 8.75C18.9 6.59609 17.1539 4.85 15 4.85ZM8.9 8.75C8.9 5.38106 11.6311 2.65 15 2.65C18.3689 2.65 21.1 5.38106 21.1 8.75C21.1 12.1189 18.3689 14.85 15 14.85C11.6311 14.85 8.9 12.1189 8.9 8.75Z" fill="#5E8BCE" stroke="white" stroke-width="0.3" stroke-linecap="round" stroke-linejoin="round"/>
</svg>
