<svg width="100" height="100" viewBox="0 0 100 100" fill="none" xmlns="http://www.w3.org/2000/svg">
<g clip-path="url(#clip0)">
<path d="M89.2768 70.8172C86.5418 69.4404 80.0151 65.2973 78.4838 56.5863C78.3438 55.7896 77.5852 55.2578 76.7871 55.3973C75.9905 55.5373 75.458 56.2967 75.5981 57.0937C77.3553 67.0908 84.7977 71.8385 87.9395 73.4244C87.093 75.8768 85.1742 80.7064 81.7975 85.6361C78.2086 90.8836 74.1412 96.831 68.1022 96.9455C62.0381 97.0459 59.8471 93.0828 52.0844 93.0828C44.3203 93.0828 41.8504 96.8371 36.1026 97.0648C30.692 97.2719 26.352 91.6625 22.0159 85.3951C14.0032 73.8053 7.64964 52.3353 15.9203 37.9799C19.3787 31.9773 25.1049 27.9078 31.6303 26.8148C32.4282 26.6812 32.9666 25.926 32.833 25.1279C32.6994 24.3299 31.9448 23.791 31.1461 23.9252C23.7537 25.1635 17.2787 29.7531 13.3813 36.5174C4.54085 51.8615 10.9119 74.4877 19.6059 87.0619C23.1832 92.2328 28.5569 100.001 35.8258 100C42.3791 100 44.8403 96.0131 52.0842 96.0127C59.1473 96.0127 61.2235 100.004 68.1565 99.8748C75.7065 99.7316 80.4248 92.8332 84.2151 87.2908C87.7944 82.0654 89.8244 76.9467 90.7157 74.3603C91.1875 72.991 90.569 71.4678 89.2768 70.8172Z" fill="white"/>
<path d="M71.0716 2.8333C71.0349 1.08526 69.4527 -0.231344 67.7171 0.0342808C56.3318 1.77354 48.099 12.7778 48.4607 22.4403C48.5191 23.9917 49.805 25.2237 51.3456 25.2237C51.373 25.2237 51.4003 25.2233 51.4277 25.2226C62.0814 24.9212 71.3042 13.8517 71.0716 2.8333ZM51.3873 22.2927C51.2165 17.3575 53.8109 12.5282 56.3064 9.64287C59.1831 6.27471 63.9398 3.5792 68.1433 2.93096C68.3189 12.2499 60.4912 22.0015 51.3873 22.2927Z" fill="white"/>
<path d="M87.4312 32.318C83.0132 26.6861 76.7232 23.8922 69.4947 23.3531C61.1738 22.7371 54.0806 27.8184 50.8044 27.8184C48.123 27.8184 43.5046 24.983 38.5111 23.9678C37.7177 23.8061 36.9449 24.3186 36.7835 25.1113C36.6224 25.9041 37.1343 26.6775 37.9271 26.8389C42.8138 27.8326 47.2513 30.7483 50.8044 30.7483C55.0763 30.7483 61.6183 25.707 69.2775 26.2748C75.6531 26.7506 81.1947 29.1322 85.1046 34.0992C82.5607 35.9318 76.557 41.1127 75.416 49.8135C75.3109 50.6156 75.8759 51.3512 76.6779 51.4565C76.7425 51.4649 76.8068 51.469 76.8703 51.469C77.5945 51.469 78.224 50.9318 78.3211 50.1945C79.3152 42.6137 84.6019 38.0699 86.8285 36.4686C88.146 35.5213 88.4679 33.6393 87.4312 32.318Z" fill="white"/>
</g>
<defs>
<clipPath id="clip0">
<rect width="100" height="100" fill="white"/>
</clipPath>
</defs>
</svg>
