<svg width="8" height="8" viewBox="0 0 8 8" fill="none" xmlns="http://www.w3.org/2000/svg">
<path fill-rule="evenodd" clip-rule="evenodd" d="M4.00065 1.00016C2.3438 1.00016 1.00065 2.34331 1.00065 4.00016C1.00065 5.65702 2.3438 7.00016 4.00065 7.00016C5.65751 7.00016 7.00065 5.65702 7.00065 4.00016C7.00065 2.34331 5.65751 1.00016 4.00065 1.00016ZM0.333984 4.00016C0.333984 1.97512 1.97561 0.333496 4.00065 0.333496C6.02569 0.333496 7.66732 1.97512 7.66732 4.00016C7.66732 6.02521 6.02569 7.66683 4.00065 7.66683C1.97561 7.66683 0.333984 6.02521 0.333984 4.00016Z" fill="#BDBDBD"/>
<path fill-rule="evenodd" clip-rule="evenodd" d="M5.23635 2.76446C5.36653 2.89464 5.36653 3.10569 5.23635 3.23586L3.23635 5.23586C3.10618 5.36604 2.89512 5.36604 2.76495 5.23586C2.63477 5.10569 2.63477 4.89463 2.76495 4.76446L4.76495 2.76446C4.89512 2.63429 5.10618 2.63429 5.23635 2.76446Z" fill="#BDBDBD"/>
<path fill-rule="evenodd" clip-rule="evenodd" d="M2.76495 2.76446C2.89512 2.63429 3.10618 2.63429 3.23635 2.76446L5.23635 4.76446C5.36653 4.89463 5.36653 5.10569 5.23635 5.23586C5.10618 5.36604 4.89512 5.36604 4.76495 5.23586L2.76495 3.23586C2.63477 3.10569 2.63477 2.89464 2.76495 2.76446Z" fill="#BDBDBD"/>
</svg>
